<?xml version="1.0" encoding="UTF-8" standalone="no"?>
<!-- Created with Inkscape (http://www.inkscape.org/) -->

<svg
   version="1.1"
   id="svg1"
   width="342.44778"
   height="609.65125"
   viewBox="0 0 342.44778 609.65125"
   xmlns="http://www.w3.org/2000/svg"
   xmlns:svg="http://www.w3.org/2000/svg">
  <defs
     id="defs1" />
  <g
     id="g1"
     transform="translate(-317.94052,-188.38893)">
    <path
       style="fill:#d4aa00"
       d="m 326.12509,591.2077 c -10.23365,-44.74227 -13.81809,-94.58427 6.95653,-136.92675 26.49351,-48.55449 77.8698,-75.08542 125.35421,-99.16632 50.38934,-23.78882 100.87682,-49.64498 141.56431,-88.4588 23.88524,-22.35764 44.49378,-48.58117 58.47924,-78.2669 3.29981,49.09358 2.85347,103.45089 -28.27687,144.45421 -40.56355,54.08807 -106.46587,77.39416 -164.78374,106.5416 -33.496,17.83946 -70.28014,32.45813 -97.15963,60.08074 -23.0582,25.28423 -37.36581,57.98362 -42.13405,91.74222 z"
       id="path2" />
    <path
       style="fill:#d4aa00"
       d="m 376.5105,694.11489 c -32.04998,-54.19307 -10.07395,-128.3094 39.26402,-164.33127 65.41167,-50.18258 149.39249,-70.12489 211.33392,-125.44979 15.77395,-11.79188 23.29201,-30.8977 32.46591,-47.65638 4.03629,46.53328 -6.58787,96.75217 -39.73999,131.33592 -44.83051,51.56786 -111.37932,73.8504 -169.45528,106.20147 -36.13946,21.40969 -73.38217,54.50994 -73.86858,99.90005 z"
       id="path3" />
    <path
       style="fill:#d4aa00"
       d="m 441.75941,798.04017 c 0.0599,-50.52099 0.11972,-101.04199 0.17958,-151.56298 -31.51867,19.19557 -52.49753,59.99871 -39.95967,96.34491 8.20076,21.66082 27.07806,36.46507 39.78009,55.21807 z"
       id="path4" />
    <path
       style="fill:#d4aa00;stroke-width:1.36791"
       d="m 324.85408,583.98477 c -0.0139,-1.06584 -0.91829,-6.98663 -2.00983,-13.15733 -9.15156,-51.73533 -2.90544,-95.5249 18.19069,-127.5293 20.76067,-31.49547 53.71414,-55.52202 123.37145,-89.95077 19.18497,-9.48234 43.19184,-21.82229 53.3486,-27.42209 63.12976,-34.80581 106.37257,-74.69777 134.66485,-124.22976 l 6.20982,-10.87169 0.0102,28.55062 c 0.0143,40.25182 -4.2124,65.43625 -14.96065,89.14102 -12.99052,28.64998 -42.64352,58.20277 -82.15098,81.87336 -13.14603,7.87635 -20.73353,11.70748 -89.51646,45.19929 -61.41987,29.90659 -80.79877,41.44606 -99.32146,59.14254 -20.74353,19.81824 -36.34832,47.95195 -43.72263,78.82702 -2.51117,10.51387 -4.06133,14.44324 -4.11357,10.42709 z"
       id="path5" />
    <path
       style="fill:#d4aa00;stroke-width:1.36791"
       d="m 324.85408,583.98477 c -0.0139,-1.06584 -0.90045,-6.88449 -1.97021,-12.93033 -9.21817,-52.09785 -3.03547,-95.61474 18.15107,-127.7563 20.92952,-31.75164 53.48992,-55.39679 125.42332,-91.0816 75.16385,-37.28737 104.60001,-56.38396 138.66589,-89.95896 21.17566,-20.8705 34.09328,-37.4566 47.64402,-61.1744 l 5.86149,-10.25935 0.0102,28.55062 c 0.0146,41.03082 -4.35441,66.34132 -15.59106,90.32153 -14.91337,31.82671 -46.33861,61.40919 -92.36472,86.9485 -7.09282,3.93571 -32.33081,16.49893 -56.08442,27.91825 -75.45614,36.27481 -102.29139,51.60575 -120.65756,68.93148 -21.41755,20.20422 -37.52699,48.88226 -44.97442,80.06347 -2.51117,10.51387 -4.06133,14.44324 -4.11357,10.42709 z"
       id="path6" />
    <path
       style="fill:#d4aa00;stroke-width:1.36791"
       d="m 323.07273,572.86241 c -7.46079,-41.77425 -5.19922,-78.52861 6.68922,-108.71147 8.16959,-20.74126 29.3046,-46.18036 53.23408,-64.07504 17.34608,-12.97158 43.43887,-27.90032 87.06876,-49.8156 76.08956,-38.21975 101.21606,-54.75243 136.09332,-89.54634 20.69752,-20.64806 31.62183,-34.44452 44.43768,-56.12094 L 658.65,190.97029 v 28.21198 c 0,37.77808 -2.54274,56.22706 -10.90906,79.15134 -13.75294,37.68395 -43.52135,68.01145 -95.99268,97.79555 -6.28249,3.5661 -32.044,16.41507 -57.24779,28.55325 -51.45651,24.78153 -82.98337,41.3253 -99.17368,52.04158 -23.76311,15.72869 -40.5405,35.04033 -53.41104,61.47887 -6.63177,13.62292 -14.26738,35.80381 -14.32159,41.60321 -0.0115,1.23245 -0.52312,3.03229 -1.1369,3.99964 -0.68523,1.07997 -1.99156,-3.14381 -3.38453,-10.9433 z"
       id="path7" />
    <path
       style="fill:#d4aa00;stroke-width:1.36791"
       d="m 323.06017,572.79349 c -7.44059,-41.65658 -4.90468,-81.45919 6.98813,-109.6829 8.60511,-20.4214 29.38516,-45.26061 52.53676,-62.79922 16.48041,-12.48482 43.48451,-27.94205 87.97694,-50.35827 22.57056,-11.37153 47.50077,-24.37369 55.40046,-28.8937 55.7899,-31.92162 96.63735,-70.01534 124.24041,-115.86474 l 8.65177,-14.37083 -0.65145,35.56573 c -0.71452,39.00841 -2.20505,49.33821 -10.32977,71.5876 -13.47424,36.89904 -43.22482,67.80512 -92.50083,96.09356 -8.27587,4.75102 -33.82165,17.67148 -56.76838,28.71211 -101.68883,48.92674 -123.62796,63.28892 -144.93076,94.87715 -11.3207,16.78659 -18.66117,33.24439 -24.10324,54.04103 -1.85786,7.09975 -3.57295,13.10366 -3.81129,13.342 -0.23835,0.23835 -1.45279,-5.27393 -2.69875,-12.24952 z"
       id="path8" />
    <path
       style="fill:#d4aa00;stroke-width:1.36791"
       d="m 323.08099,572.86241 c -7.52416,-42.28297 -5.1847,-79.91791 6.78437,-109.13998 8.6515,-21.12235 29.96537,-46.56717 53.74503,-64.16165 17.78228,-13.15703 37.60145,-24.43705 90.37139,-51.4346 53.55895,-27.40122 64.68468,-33.70929 86.86246,-49.24929 38.03681,-26.65245 67.21728,-57.23973 89.19705,-93.49733 l 8.82386,-14.55573 -0.65339,35.56573 c -0.52804,28.74361 -1.17682,37.92724 -3.38232,47.87695 -7.60054,34.28848 -21.60404,58.4677 -48.11593,83.0796 -23.06581,21.41278 -47.59298,36.35522 -105.31645,64.16086 -52.91881,25.49122 -90.09812,44.97412 -106.07027,55.5835 -30.98841,20.58383 -51.15406,48.18083 -63.4614,86.84793 -2.33765,7.34442 -4.25971,14.42337 -4.27123,15.731 -0.0115,1.30762 -0.52312,3.16896 -1.1369,4.13631 -0.68505,1.07968 -1.98873,-3.14585 -3.37627,-10.9433 z"
       id="path9" />
  </g>
</svg>
